<?xml version="1.0" encoding="UTF-8"?>
<!DOCTYPE svg PUBLIC "-//W3C//DTD SVG 1.1//EN" "http://www.w3.org/Graphics/SVG/1.1/DTD/svg11.dtd">
<svg version="1.1" xmlns="http://www.w3.org/2000/svg" xmlns:xlink="http://www.w3.org/1999/xlink" x="0px" y="0px" width="512px" height="512px" viewBox="-6.393 0 512 512" overflow="visible" enable-background="new -6.393 0 512 512" xml:space="preserve">
<defs>
</defs>
<path fill-rule="evenodd" clip-rule="evenodd" fill="#0B4499" d="M19.606,470.402c0,7.383,1.76,13.306,5.271,17.763  c3.513,4.411,8.165,6.619,13.957,6.619c5.793,0,10.445-2.208,13.957-6.619c3.512-4.457,5.271-10.38,5.271-17.763  c0-7.642-1.746-13.701-5.219-18.191c-3.473-4.488-8.145-6.737-14.01-6.737c-5.87,0-10.536,2.249-14.009,6.737  C21.347,456.701,19.606,462.761,19.606,470.402 M0,470.181c0-12.489,3.571-22.569,10.699-30.246  c7.174-7.714,16.55-11.571,28.135-11.571c11.625,0,21.021,3.857,28.181,11.571c7.175,7.709,10.759,17.797,10.759,30.246  c0,12.537-3.584,22.632-10.759,30.306C59.887,508.162,50.491,512,38.834,512c-11.656,0-21.053-3.838-28.187-11.514  C3.552,492.812,0,482.718,0,470.181"/>
<path fill-rule="evenodd" clip-rule="evenodd" fill="#0B4499" d="M104.658,504.447l-24.115-60.498  c-0.326-0.756-0.581-1.578-0.764-2.444c-0.182-0.897-0.272-1.811-0.272-2.71c0-2.573,0.892-4.711,2.664-6.406  c1.779-1.705,4.002-2.56,6.679-2.56c1.961,0,3.55,0.606,4.776,1.792c1.27,1.16,2.43,3.153,3.486,5.975l16.667,44.913l15.474-44.256  c1.051-3.146,2.249-5.341,3.592-6.572c1.336-1.239,3.115-1.852,5.318-1.852c2.716,0,4.853,0.75,6.41,2.229  c1.559,1.486,2.338,3.52,2.338,6.086c0,1.01-0.11,2.065-0.332,3.147c-0.176,1.056-0.469,2.084-0.864,3.102l-23.354,59.352  c-1.049,2.679-2.286,4.602-3.694,5.76c-1.408,1.16-3.219,1.74-5.427,1.74c-2.061,0-3.774-0.528-5.103-1.575  C106.834,508.618,105.674,506.879,104.658,504.447"/>
<path fill-rule="evenodd" clip-rule="evenodd" fill="#0B4499" d="M170.096,477.727v20.154c0,4.308-0.743,7.52-2.222,9.609  c-1.487,2.099-3.747,3.154-6.79,3.154c-3.042,0-5.305-1.056-6.797-3.154c-1.479-2.09-2.222-5.302-2.222-9.609v-55.51  c0-4.307,0.743-7.506,2.222-9.609c1.492-2.131,3.755-3.199,6.797-3.199c3.043,0,5.303,1.068,6.79,3.199  c1.479,2.104,2.222,5.303,2.222,9.609v18.682h33.134v-18.682c0-4.307,0.741-7.506,2.22-9.609c1.487-2.131,3.755-3.199,6.797-3.199  c3.037,0,5.303,1.068,6.784,3.199c1.484,2.104,2.222,5.303,2.222,9.609v55.51c0,4.308-0.737,7.52-2.222,9.609  c-1.481,2.099-3.747,3.154-6.784,3.154c-3.042,0-5.31-1.056-6.797-3.154c-1.479-2.09-2.22-5.302-2.22-9.609v-20.154H170.096"/>
<path fill="#567EB9" d="M231.031,500.324c0-2.788,0.996-5.162,2.99-7.115c1.988-1.988,4.381-2.984,7.162-2.984  c2.763,0,5.108,0.996,7.062,2.984c1.954,1.953,2.939,4.327,2.939,7.115c0,2.822-0.985,5.212-2.939,7.166  c-1.922,1.955-4.274,2.94-7.062,2.94c-2.854,0-5.265-0.985-7.22-2.94C232.008,505.536,231.031,503.146,231.031,500.324"/>
<path fill="#567EB9" d="M295.721,512c-11.623,0-20.988-3.823-28.083-11.455c-7.097-7.681-10.648-17.795-10.648-30.364  c0-12.275,3.676-22.304,11.025-30.083c7.351-7.818,16.655-11.734,27.913-11.734c6.633,0,12.225,1.271,16.785,3.805  c4.601,2.535,6.894,5.479,6.894,8.849c0,2.177-0.755,4.072-2.28,5.708c-1.519,1.63-3.31,2.444-5.376,2.444  c-1.152,0-3.512-0.508-7.062-1.525c-3.512-1.042-6.463-1.57-8.848-1.57c-5.903,0-10.621,2.229-14.18,6.678  c-3.512,4.412-5.264,10.374-5.264,17.867c0,7.351,1.792,13.183,5.374,17.488c3.624,4.268,8.49,6.412,14.615,6.412  c2.822,0,6.041-0.678,9.665-2.014c3.622-1.374,6.007-2.066,7.168-2.066c1.849,0,3.51,0.796,4.989,2.392  c1.492,1.59,2.229,3.422,2.229,5.486c0,3.729-2.406,6.952-7.219,9.663C308.643,510.664,302.739,512,295.721,512"/>
<path fill="#567EB9" d="M343.508,470.402c0,7.383,1.753,13.306,5.265,17.763c3.513,4.411,8.171,6.619,13.951,6.619  c5.804,0,10.45-2.208,13.967-6.619c3.506-4.457,5.267-10.38,5.267-17.763c0-7.642-1.739-13.701-5.214-18.191  c-3.479-4.488-8.144-6.737-14.02-6.737c-5.86,0-10.531,2.249-14.004,6.737C345.24,456.701,343.508,462.761,343.508,470.402   M323.895,470.181c0-12.489,3.571-22.569,10.697-30.246c7.176-7.714,16.552-11.571,28.132-11.571  c11.636,0,21.025,3.857,28.193,11.571c7.167,7.709,10.749,17.797,10.749,30.246c0,12.537-3.582,22.632-10.749,30.306  C383.781,508.162,374.385,512,362.724,512c-11.651,0-21.048-3.838-28.184-11.514C327.446,492.812,323.895,482.718,323.895,470.181"/>
<path fill="#567EB9" d="M407.213,495.872l9.662-53.929c0.796-4.457,2.138-7.618,4.021-9.502c1.914-1.922,4.651-2.879,8.202-2.879  c3.362,0,6.086,0.879,8.145,2.658c2.059,1.778,3.551,4.456,4.451,8.041l12.008,47.239l11.24-47.344  c0.827-3.52,2.273-6.158,4.345-7.937c2.061-1.779,4.724-2.658,7.977-2.658c3.726,0,6.593,1.017,8.582,3.036  c1.994,1.992,3.368,5.323,4.124,9.995l8.804,54.42c0.142,0.796,0.253,1.57,0.323,2.341c0.072,0.722,0.113,1.365,0.118,1.947  c-0.005,2.892-0.84,5.192-2.508,6.898c-1.661,1.702-3.869,2.549-6.626,2.549c-2.53,0-4.543-0.867-6.027-2.601  c-1.48-1.738-2.438-4.384-2.875-7.931l-5.699-47.25c-4.386,18.9-7.644,32.26-9.782,40.085c-2.098,7.812-3.733,12.647-4.88,14.497  c-0.73,1.158-1.688,1.974-2.886,2.444c-1.153,0.5-2.711,0.755-4.672,0.755c-3.037,0-5.357-0.683-6.954-2.06  c-1.588-1.375-2.802-3.714-3.628-7.003l-11.684-48.719l-6.189,46.112c-0.58,4.084-1.629,7.056-3.141,8.899  c-1.531,1.851-3.63,2.77-6.308,2.77c-2.646,0-4.782-0.847-6.411-2.549c-1.589-1.706-2.393-4.007-2.393-6.898  c0-0.686,0.061-1.486,0.17-2.386C406.826,497.972,406.991,496.954,407.213,495.872"/>
<path fill-rule="evenodd" clip-rule="evenodd" fill="#0B4499" d="M249.111,0C156.791,0,77.936,54.851,45.735,132.245h77.791  c26.618-39.473,72.881-65.686,125.585-65.686c52.701,0,98.964,26.213,125.58,65.686h77.833C420.314,54.851,341.422,0,249.111,0  L249.111,0z M53.17,302.679c35.869,68.938,110.038,116.444,195.941,116.444c85.893,0,160.094-47.506,195.985-116.444h-82.728  c-27.417,30.502-67.952,49.886-113.258,49.886c-45.316,0-85.852-19.384-113.264-49.886H53.17L53.17,302.679z"/>
<polygon fill-rule="evenodd" clip-rule="evenodd" fill="#0B4499" points="372.033,137.483 340.256,192.706 294.488,192.706   257.766,256.43 303.585,256.43 280.011,297.362 360.487,297.362 452.516,137.483 372.033,137.483 "/>
<path fill-rule="evenodd" clip-rule="evenodd" fill="#0B4499" d="M236.062,137.483l-50.087,87.06l40.215,69.895l90.349-156.954  H236.062L236.062,137.483z M145.715,294.438l-1.676,2.925h3.349L145.715,294.438L145.715,294.438z"/>
<polygon fill-rule="evenodd" clip-rule="evenodd" fill="#0B4499" points="45.839,137.472 137.861,297.362 218.333,297.362   126.31,137.472 45.839,137.472 "/>
</svg>